<?xml version="1.0" encoding="utf-8"?>
<!-- Generator: Adobe Illustrator 16.0.0, SVG Export Plug-In . SVG Version: 6.00 Build 0)  -->
<!DOCTYPE svg PUBLIC "-//W3C//DTD SVG 1.1//EN" "http://www.w3.org/Graphics/SVG/1.1/DTD/svg11.dtd">
<svg version="1.1" id="Layer_1" xmlns="http://www.w3.org/2000/svg" xmlns:xlink="http://www.w3.org/1999/xlink" x="0px" y="0px"
	 width="135px" height="135px" viewBox="0 0 135 135" style="enable-background:new 0 0 135 135;" xml:space="preserve">
<style type="text/css">
<![CDATA[
	.st0{fill:#465652;}
	.st1{fill:#AAB9BA;}
	.st2{fill:#47C67B;}
	.st3{fill:#AAC8D1;}
	.st4{fill:none;stroke:#E83834;stroke-width:6;stroke-linecap:round;stroke-linejoin:round;stroke-miterlimit:10;}
	.st5{fill:#7BC67B;}
	.st6{fill:#7BC7FF;}
	.st7{fill:#7C34C1;}
	.st8{fill:#7C8D96;}
	.st9{fill:#AD2707;}
	.st10{fill:#ADB8BC;}
	.st11{fill:#107510;}
	.st12{fill:#7FE5D8;}
	.st13{fill:#AF4AD1;}
	.st14{fill:#E02B7E;}
	.st15{fill:#E04038;}
	.st16{fill:#AFD7DD;}
	.st17{fill:#E0A010;}
	.st18{fill:#E0D5A4;}
	.st19{fill:#12B2B2;}
	.st20{fill:#12D66B;}
	.st21{fill:#E1A9FF;}
	.st22{fill:#1362A8;}
	.st23{fill:#E2378D;}
	.st24{fill:#E29C37;}
	.st25{fill:#E2B90E;}
	.st26{fill:#E2BF91;}
	.st27{fill:#E2CBAA;}
	.st28{fill:#14A594;}
	.st29{fill:#E4E9ED;}
	.st30{fill:#4A5D60;}
	.st31{fill:#E5B076;}
	.st32{fill:#E5B1C4;}
	.st33{fill:#E5E4C3;}
	.st34{fill:#4B6466;}
	.st35{fill:#E6FF2E;}
	.st36{fill:#18AA67;}
	.st37{fill:#E86207;}
	.st38{fill:#E8A113;}
	.st39{fill:#E8B5A6;}
	.st40{fill:#E8E8ED;}
	.st41{fill:#4E5154;}
	.st42{fill:#E9F1F4;}
	.st43{fill:#4F4B48;}
	.st44{fill:#4F74E8;}
	.st45{fill:#808E93;}
	.st46{fill:#80949B;}
	.st47{fill:#80EDAC;}
	.st48{fill:#B122E0;}
	.st49{fill:#B2C4CC;}
	.st50{fill:#83D839;}
	.st51{fill:#B3C6C6;}
	.st52{fill:none;stroke:#33363A;stroke-width:3;stroke-linecap:round;stroke-linejoin:round;stroke-miterlimit:10;}
	.st53{fill:#1A8E1C;}
	.st54{fill:#1A93D6;}
	.st55{fill:#B50B0B;}
	.st56{fill:#1AD88F;}
	.st57{fill:#B5DAF4;}
	.st58{fill:#EA7B1F;}
	.st59{fill:#EA81BD;}
	.st60{fill:#87B8D6;}
	.st61{fill:#87C3F4;}
	.st62{fill:#EAC79D;}
	.st63{fill:#EADF11;}
	.st64{fill:#EAE4C5;}
	.st65{fill:#B78094;}
	.st66{fill:#8844D8;}
	.st67{fill:#EBF4F7;}
	.st68{fill:#893015;}
	.st69{fill:#89410B;}
	.st70{fill:#899BA3;}
	.st71{fill:#EDE3B9;}
	.st72{enable-background:new    ;}
	.st73{fill:#50FF9F;}
	.st74{fill:#EEDCF4;}
	.st75{fill:#EFA37D;}
	.st76{fill:#EFA3CC;}
	.st77{fill:#EFC99A;}
	.st78{fill:#54AF79;}
	.st79{fill:#BA503A;}
	.st80{fill:#BA8663;}
	.st81{fill:#8B4FE0;}
	.st82{fill:#58ED9B;}
	.st83{fill:#BC7DFF;}
	.st84{fill:#8D9AA3;}
	.st85{fill:#BCCAD3;}
	.st86{fill:#8DE4FF;}
	.st87{fill:#20B518;}
	.st88{fill:#BF44F2;}
	.st89{fill:#21CEA1;}
	.st90{fill:#BFDAE0;}
	.st91{fill:#F0FBFC;}
	.st92{fill:#F2D9A7;}
	.st93{fill:#F2EAC9;}
	.st94{fill:#24D1AF;}
	.st95{fill:#25931C;}
	.st96{fill:#F4C4B3;}
	.st97{fill:#F4D3A2;}
	.st98{fill:#F4D647;}
	.st99{fill:#F4D7B8;}
	.st100{fill:#F4EC8E;}
	.st101{fill:#5B524D;}
	.st102{fill:#F77819;}
	.st103{fill:#F79AE1;}
	.st104{fill:#5E707A;}
	.st105{fill:#F93585;}
	.st106{fill:#F95D5D;}
	.st107{fill:#F9C19B;}
	.st108{fill:#F9CB58;}
	.st109{fill:#F9D2B2;}
	.st110{fill:#F9F07D;}
	.st111{fill:#F9F1D2;}
	.st112{fill:#F9F4B7;}
	.st113{fill:#F9F9E4;}
	.st114{fill:#5F1DAA;}
	.st115{fill:#5F9AD6;}
	.st116{fill:#C0C0C4;}
	.st117{fill:#91EA57;}
	.st118{fill:#C12727;}
	.st119{fill:#C191A0;}
	.st120{fill:#923BB7;}
	.st121{fill:#93A0A3;}
	.st122{fill:#93F9EA;}
	.st123{fill:#93FF5A;}
	.st124{fill:#C4833D;}
	.st125{fill:#95A2A5;}
	.st126{fill:#965514;}
	.st127{fill:#96562C;}
	.st128{fill:#2AF42F;}
	.st129{fill:#C5D7DD;}
	.st130{fill:#C68510;}
	.st131{fill:#C6A86D;}
	.st132{fill:#C6BB8D;}
	.st133{fill:#2C9DCE;}
	.st134{fill:#FBFCF2;}
	.st135{fill:#FC70B0;}
	.st136{fill:#FCE6C8;}
	.st137{fill:#FCF7E3;}
	.st138{fill:#C90D6B;}
	.st139{fill:#FDFEFF;}
	.st140{fill:#FDFFDC;}
	.st141{fill:#FF1A1A;}
	.st142{fill:#FF5252;}
	.st143{fill:#FF5B00;}
	.st144{fill:#FF6155;}
	.st145{fill:#FF630D;}
	.st146{fill:#FF6666;}
	.st147{fill:#FF7676;}
	.st148{fill:#FF7900;}
	.st149{fill:#FF860D;}
	.st150{fill:#FF8B00;}
	.st151{fill:#FF8F8F;}
	.st152{fill:#FF900B;}
	.st153{fill:#FF908A;}
	.st154{fill:#FF960B;}
	.st155{fill:#FF9C0D;}
	.st156{fill:#FFA9D4;}
	.st157{fill:#FFAA00;}
	.st158{fill:#FFAD40;}
	.st159{fill:#FFAF10;}
	.st160{fill:#FFB000;}
	.st161{fill:#FFBE08;}
	.st162{fill:#FFBF31;}
	.st163{fill:#FFC200;}
	.st164{fill:#FFCAE8;}
	.st165{fill:#FFCCF5;}
	.st166{fill:#FFD00B;}
	.st167{fill:#FFD039;}
	.st168{fill:#FFD400;}
	.st169{fill:#FFD833;}
	.st170{fill:#FFDB80;}
	.st171{fill:#FFDDD2;}
	.st172{fill:#FFE6D4;}
	.st173{fill:#FFE6EB;}
	.st174{fill:#FFE98D;}
	.st175{fill:#FFECD2;}
	.st176{fill:#FFF1D9;}
	.st177{fill:#FFF24D;}
	.st178{fill:#FFF3C2;}
	.st179{fill:#FFF4C7;}
	.st180{fill:#FFF800;}
	.st181{fill:#FFF80D;}
	.st182{fill:#FFF9DE;}
	.st183{fill:#FFFBD7;}
	.st184{fill:#FFFBEB;}
	.st185{fill:#FFFCC0;}
	.st186{fill:#FFFCDC;}
	.st187{fill:#FFFFFA;}
	.st188{fill:#FFFFFF;}
	.st189{fill:#63797F;}
	.st190{fill:#65E529;}
	.st191{fill:#66310E;}
	.st192{fill:#663C17;}
	.st193{fill:#9A5AE5;}
	.st194{fill:#CA30EF;}
	.st195{fill:#6892FC;}
	.st196{fill:#9CFFC4;}
	.st197{fill:#CC4306;}
	.st198{fill:#CC549E;}
	.st199{fill:#9E3256;}
	.st200{fill:#CDFFBB;}
	.st201{fill:#CE86AF;}
	.st202{fill:#CED9DD;}
	
		.st203{fill:none;stroke:#33363A;stroke-width:3;stroke-linecap:round;stroke-linejoin:round;stroke-miterlimit:10;stroke-dasharray:6;}
	.st204{fill:#CFE1E2;}
	.st205{fill:#33363A;}
	.st206{fill:#34C166;}
	.st207{fill:#364B5B;}
	.st208{fill:#3662CE;}
	.st209{fill:#36C6FF;}
	.st210{fill:#6ADB9A;}
	.st211{fill:#6D5C4D;}
	.st212{fill:#6EBDF9;}
	.st213{fill:#0031FF;}
	.st214{fill:#0062FF;}
	.st215{fill:#0068FF;}
	.st216{fill:#0086FF;}
	.st217{fill:#009BE8;}
	.st218{fill:#00AAFF;}
	.st219{fill:#D271FF;}
	.st220{fill:#D363A9;}
	.st221{fill:#D3964C;}
	.st222{fill:#D3DFE2;}
	.st223{fill:#D3E0E2;}
	.st224{fill:#D3EFF4;}
	.st225{fill:#063B66;}
	.st226{fill:#D60909;}
	.st227{fill:#D61D1D;}
	.st228{fill:#D7F0FF;}
	.st229{fill:#09B285;}
	.st230{fill:#D8D593;}
	.st231{fill:#D8E2EA;}
	.st232{fill:#D8E5EA;}
	.st233{fill:#3E5054;}
	.st234{fill:#D988FF;}
	.st235{fill:#D9E7E8;}
	.st236{fill:#702252;}
	.st237{fill:#70D3E0;}
	.st238{fill:#A02FF2;}
	.st239{fill:#A2F255;}
	.st240{fill:#A35616;}
	.st241{fill:#A3CCCC;}
	.st242{fill:#0A6ADD;}
	.st243{fill:#A5145D;}
	.st244{fill:#A57555;}
	.st245{fill:#77D6FC;}
	.st246{fill:#7815CE;}
	.st247{fill:#A7BBC1;}
	.st248{fill:#DBD279;}
	.st249{fill:#0D5C9E;}
	.st250{fill:#A83C11;}
	.st251{fill:#A8633D;}
	.st252{fill:#A8A3E5;}
	.st253{fill:#DCE6EA;}
	.st254{fill:#DCE7EA;}
	.st255{fill:#A962E8;}
	.st256{fill:#DD2466;}
	.st257{fill:#DDC38A;}
	.st258{fill:#DDD2B1;}
	.st259{fill:#DFE7E8;}
	.st260{fill:#42B1E8;}
	.st261{fill:#436377;}
	.st262{fill:#43B530;}
]]>
</style>
<g>
	<g>
		<g>
			<g>
				<path class="st59" d="M32.667,82.584c0,3.188-6.352,5.771-14.184,5.771c-7.834,0-14.186-2.584-14.186-5.771
					s12.467-12.6,20.301-12.6S32.667,79.396,32.667,82.584z"/>
			</g>
			<g>
				<path class="st220" d="M32.667,82.584c0,3.188-6.352,5.771-14.184,5.771c-7.834,0-14.186-2.584-14.186-5.771
					s13.129-1.855,20.963-1.855S32.667,79.396,32.667,82.584z"/>
			</g>
			<g>
				<path class="st205" d="M18.483,89.855c-7.604,0-15.686-2.549-15.686-7.271c0-4.488,13.687-14.1,21.801-14.1
					c3.573,0,9.568,1.832,9.568,14.1C34.167,87.307,26.086,89.855,18.483,89.855z M24.598,71.484
					c-7.299,0-18.555,8.855-18.801,11.116c0,1.725,4.942,4.255,12.686,4.255c7.743,0,12.684-2.53,12.684-4.271
					C31.167,75.219,28.957,71.484,24.598,71.484z"/>
			</g>
		</g>
		<g>
			<g>
				<path class="st59" d="M102.334,82.584c0,3.188,6.35,5.771,14.184,5.771s14.184-2.584,14.184-5.771s-12.467-12.6-20.301-12.6
					C102.569,69.984,102.334,79.396,102.334,82.584z"/>
			</g>
			<g>
				<path class="st220" d="M102.334,82.584c0,3.188,6.35,5.771,14.184,5.771s14.184-2.584,14.184-5.771s-13.129-1.855-20.963-1.855
					S102.334,79.396,102.334,82.584z"/>
			</g>
			<g>
				<path class="st205" d="M116.518,89.855c-7.603,0-15.684-2.549-15.684-7.271c0-12.268,5.994-14.1,9.566-14.1
					c8.114,0,21.801,9.611,21.801,14.1C132.202,87.307,124.121,89.855,116.518,89.855z M110.401,71.484
					c-4.357,0-6.566,3.734-6.566,11.1c0,1.741,4.941,4.271,12.684,4.271s12.684-2.53,12.684-4.271
					C128.956,80.34,117.7,71.484,110.401,71.484z"/>
			</g>
		</g>
	</g>
	<g>
		<g>
			<g>
				<ellipse class="st59" cx="44.928" cy="108.609" rx="21.655" ry="6.541"/>
			</g>
			<g>
				<path class="st220" d="M66.583,108.609c0,3.611-9.695,0-21.654,0c-11.96,0-21.655,3.611-21.655,0
					c0-3.613,9.695-6.541,21.655-6.541C56.887,102.068,66.583,104.996,66.583,108.609z"/>
			</g>
			<g>
				<path class="st205" d="M44.928,116.65c-11.507,0-23.155-2.762-23.155-8.041s11.648-8.041,23.155-8.041
					c11.506,0,23.154,2.762,23.154,8.041S56.435,116.65,44.928,116.65z M44.928,103.568c-13.041,0-20.155,3.33-20.155,5.041
					s7.114,5.041,20.155,5.041c13.041,0,20.154-3.33,20.154-5.041S57.969,103.568,44.928,103.568z"/>
			</g>
		</g>
		<g>
			<g>
				<ellipse class="st59" cx="90.072" cy="108.609" rx="21.655" ry="6.541"/>
			</g>
			<g>
				<path class="st220" d="M68.417,108.609c0,3.611,9.695,0,21.655,0c11.959,0,21.654,3.611,21.654,0
					c0-3.613-9.695-6.541-21.654-6.541C78.113,102.068,68.417,104.996,68.417,108.609z"/>
			</g>
			<g>
				<path class="st205" d="M90.073,116.65c-11.507,0-23.155-2.762-23.155-8.041s11.648-8.041,23.155-8.041
					c11.506,0,23.154,2.762,23.154,8.041S101.579,116.65,90.073,116.65z M90.073,103.568c-13.041,0-20.155,3.33-20.155,5.041
					s7.114,5.041,20.155,5.041c13.041,0,20.154-3.33,20.154-5.041S103.113,103.568,90.073,103.568z"/>
			</g>
		</g>
	</g>
	<g>
		<g>
			<g>
				<path class="st199" d="M22.985,19.852c-5.656,7.771-6.842,18.367-2.131,27.49c4.709,9.127,14.031,14.297,23.645,14.188
					c5.656-7.771,6.842-18.365,2.131-27.49C41.919,24.914,32.599,19.744,22.985,19.852z"/>
			</g>
			<g>
				<path class="st164" d="M22.985,19.852c-5.656,7.771,4.681,16.744,9.392,25.867c4.709,9.127,2.509,15.92,12.122,15.811
					c5.656-7.771,6.842-18.365,2.131-27.49C41.919,24.914,32.599,19.744,22.985,19.852z"/>
			</g>
			<g>
				<path class="st76" d="M22.985,19.852c-5.656,7.771,4.681,16.744,9.392,25.867c4.709,9.127,2.509,15.92,12.122,15.811
					c5.656-7.771,3.201-11.713-1.51-20.838C38.28,31.564,32.599,19.744,22.985,19.852z"/>
			</g>
			<g>
				<path class="st205" d="M44.271,63.03c-7.559,0-8.875-4.283-10.399-9.243c-0.676-2.199-1.441-4.692-2.829-7.381
					c-1.248-2.416-2.953-4.892-4.601-7.286c-4.622-6.712-9.4-13.652-4.67-20.151c0.279-0.383,0.722-0.611,1.196-0.617l0.311-0.002
					c10.449,0,19.907,5.748,24.684,15.001c4.838,9.371,3.975,20.507-2.251,29.062c-0.279,0.383-0.722,0.611-1.196,0.617
					L44.271,63.03z M23.789,21.355c-2.744,4.637,0.916,9.951,5.125,16.063c1.701,2.471,3.46,5.025,4.796,7.611
					c1.51,2.928,2.318,5.556,3.03,7.875c1.451,4.721,2.14,6.965,6.986,7.117c5.152-7.544,5.768-17.165,1.57-25.295
					C41.115,26.626,32.908,21.538,23.789,21.355z"/>
			</g>
			<g>
				<path class="st205" d="M44.2,63.031c-10.448,0-19.905-5.748-24.679-15.002c-4.838-9.369-3.976-20.505,2.251-29.061
					c0.279-0.383,0.722-0.611,1.196-0.617l0.311-0.002c10.449,0,19.907,5.748,24.684,15.001c4.838,9.371,3.975,20.507-2.251,29.062
					c-0.279,0.383-0.722,0.611-1.196,0.617L44.2,63.031z M23.76,21.354c-5.155,7.545-5.772,17.168-1.573,25.299
					c4.185,8.111,12.405,13.201,21.536,13.373c5.155-7.544,5.771-17.167,1.573-25.299C41.111,26.618,32.89,21.528,23.76,21.354z"/>
			</g>
		</g>
		<g>
			<g>
				<path class="st199" d="M112.014,19.852c5.656,7.771,6.842,18.367,2.131,27.49c-4.709,9.127-14.03,14.297-23.644,14.188
					c-5.657-7.771-6.842-18.365-2.131-27.49C93.081,24.914,102.401,19.744,112.014,19.852z"/>
			</g>
			<g>
				<path class="st164" d="M112.014,19.852c5.656,7.771-4.68,16.744-9.391,25.867c-4.709,9.127-2.509,15.92-12.122,15.811
					c-5.657-7.771-6.842-18.365-2.131-27.49C93.081,24.914,102.401,19.744,112.014,19.852z"/>
			</g>
			<g>
				<path class="st76" d="M112.014,19.852c5.656,7.771-4.68,16.744-9.391,25.867c-4.709,9.127-2.509,15.92-12.122,15.811
					c-5.657-7.771-3.202-11.713,1.509-20.838C96.719,31.564,102.401,19.744,112.014,19.852z"/>
			</g>
			<g>
				<path class="st205" d="M90.729,63.03l-0.244-0.001c-0.474-0.006-0.917-0.234-1.196-0.617
					c-6.227-8.554-7.089-19.689-2.251-29.062c4.776-9.253,14.234-15.001,24.683-15.001l0.311,0.002
					c0.474,0.006,0.917,0.234,1.196,0.617c4.73,6.499-0.049,13.44-4.67,20.152c-1.648,2.394-3.352,4.869-4.6,7.286
					c-1.387,2.688-2.153,5.181-2.829,7.38C99.604,58.747,98.287,63.03,90.729,63.03z M111.21,21.355
					c-9.119,0.183-17.326,5.271-21.507,13.372c-4.198,8.131-3.582,17.752,1.57,25.295c4.846-0.152,5.536-2.396,6.986-7.116
					c0.712-2.319,1.52-4.948,3.03-7.875c1.335-2.586,3.094-5.141,4.795-7.611C110.295,31.307,113.955,25.992,111.21,21.355z"/>
			</g>
			<g>
				<path class="st205" d="M90.8,63.031l-0.316-0.002c-0.474-0.006-0.917-0.234-1.196-0.617c-6.227-8.554-7.089-19.689-2.251-29.062
					c4.776-9.253,14.234-15.001,24.683-15.001l0.311,0.002c0.474,0.006,0.917,0.234,1.196,0.617
					c6.227,8.556,7.089,19.691,2.251,29.062C110.704,57.283,101.248,63.031,90.8,63.031z M111.239,21.354
					c-9.129,0.174-17.35,5.264-21.535,13.373c-4.199,8.132-3.582,17.756,1.573,25.299c9.13-0.172,17.351-5.262,21.535-13.372
					C117.011,38.522,116.394,28.899,111.239,21.354z"/>
			</g>
		</g>
	</g>
	<g>
		<g>
			<g>
				<g>
					<g>
						<path class="st164" d="M116.709,72.914c0,20.676-22.032,37.441-49.209,37.441c-27.178,0-49.209-16.766-49.209-37.441
							c0-20.68,22.031-45.459,49.209-45.459C94.677,27.455,116.709,52.234,116.709,72.914z"/>
					</g>
					<g>
						<path class="st76" d="M116.709,72.914c0,20.676-22.032,37.441-49.209,37.441c-27.178,0-49.209-16.766-49.209-37.441
							c0-20.68,22.031-34.928,49.209-34.928C94.677,37.986,116.709,52.234,116.709,72.914z"/>
					</g>
					<g>
						<path class="st59" d="M116.709,72.914c0,20.676-22.032,37.441-49.209,37.441c-27.178,0-49.209-16.766-49.209-37.441
							c0-20.682,6.261,18.34,49.209,18.34C110.448,91.254,116.709,52.232,116.709,72.914z"/>
					</g>
					<g>
						<path class="st205" d="M67.5,111.855c-27.961,0-50.709-17.469-50.709-38.941c0-21.27,22.62-46.959,50.709-46.959
							c13.041,0,25.772,5.472,35.849,15.406c9.305,9.174,14.86,20.97,14.86,31.553C118.209,94.387,95.461,111.855,67.5,111.855z
							 M67.5,28.955c-26.428,0-47.709,24.048-47.709,43.959c0,19.818,21.402,35.941,47.709,35.941s47.709-16.123,47.709-35.941
							C115.209,53.003,93.928,28.955,67.5,28.955z"/>
					</g>
				</g>
				<g>
					<g>
						<g>
							<g>
								<g>
									<path class="st28" d="M51.338,70.756c0,4.449-3.605,8.051-8.053,8.051c-4.446,0-8.051-3.602-8.051-8.051
										c0-4.447,3.604-8.051,8.051-8.051C47.733,62.705,51.338,66.309,51.338,70.756z"/>
								</g>
								<g>
									<path class="st205" d="M51.338,70.756c0,4.449-3.605,1.664-8.053,1.664c-4.446,0-8.051,2.785-8.051-1.664
										c0-4.447,3.604-8.051,8.051-8.051C47.733,62.705,51.338,66.309,51.338,70.756z"/>
								</g>
								<g>
									<path class="st205" d="M43.286,80.307c-5.266,0-9.551-4.284-9.551-9.551s4.285-9.551,9.551-9.551
										c5.268,0,9.553,4.284,9.553,9.551S48.553,80.307,43.286,80.307z M43.286,64.205c-3.612,0-6.551,2.938-6.551,6.551
										s2.938,6.551,6.551,6.551c3.613,0,6.553-2.938,6.553-6.551S46.899,64.205,43.286,64.205z"/>
								</g>
							</g>
							<g>
								<g>
									<circle class="st188" cx="39.282" cy="68.139" r="3.281"/>
								</g>
								<g>
									<path class="st205" d="M39.282,72.92c-2.636,0-4.78-2.145-4.78-4.781c0-2.636,2.145-4.779,4.78-4.779
										c2.636,0,4.781,2.144,4.781,4.779C44.063,70.775,41.918,72.92,39.282,72.92z M39.282,66.359
										c-0.981,0-1.78,0.798-1.78,1.779c0,0.982,0.799,1.781,1.78,1.781c0.982,0,1.781-0.799,1.781-1.781
										C41.063,67.157,40.264,66.359,39.282,66.359z"/>
								</g>
							</g>
						</g>
						<g>
							<g>
								<g>
									<path class="st28" d="M99.765,70.756c0,4.449-3.604,8.051-8.051,8.051c-4.447,0-8.052-3.602-8.052-8.051
										c0-4.447,3.604-8.051,8.052-8.051C96.161,62.705,99.765,66.309,99.765,70.756z"/>
								</g>
								<g>
									<path class="st205" d="M99.765,70.756c0,4.449-3.604,1.664-8.051,1.664c-4.447,0-8.052,2.785-8.052-1.664
										c0-4.447,3.604-8.051,8.052-8.051C96.161,62.705,99.765,66.309,99.765,70.756z"/>
								</g>
								<g>
									<path class="st205" d="M91.714,80.307c-5.267,0-9.552-4.284-9.552-9.551s4.285-9.551,9.552-9.551
										c5.266,0,9.551,4.284,9.551,9.551S96.98,80.307,91.714,80.307z M91.714,64.205c-3.613,0-6.552,2.938-6.552,6.551
										s2.939,6.551,6.552,6.551c3.612,0,6.551-2.938,6.551-6.551S95.327,64.205,91.714,64.205z"/>
								</g>
							</g>
							<g>
								<g>
									<circle class="st188" cx="87.709" cy="68.139" r="3.28"/>
								</g>
								<g>
									<path class="st205" d="M87.709,72.92c-2.636,0-4.78-2.145-4.78-4.781c0-2.636,2.145-4.779,4.78-4.779
										s4.78,2.144,4.78,4.779C92.49,70.775,90.345,72.92,87.709,72.92z M87.709,66.359c-0.981,0-1.78,0.798-1.78,1.779
										c0,0.982,0.799,1.781,1.78,1.781s1.78-0.799,1.78-1.781C89.49,67.157,88.691,66.359,87.709,66.359z"/>
								</g>
							</g>
						</g>
					</g>
				</g>
				<g>
					<path class="st164" d="M75.063,72.613c0,1.012-3.404,1.193-7.605,1.193c-4.2,0-7.605-0.182-7.605-1.193
						c0-1.01,3.405-3.654,7.605-3.654C71.659,68.959,75.063,71.604,75.063,72.613z"/>
				</g>
			</g>
		</g>
	</g>
	<g>
		<path class="st199" d="M58.604,80.729c0,4.912,3.982,8.895,8.896,8.895c4.914,0,8.896-3.982,8.896-8.895H58.604z"/>
	</g>
	<g>
		<path class="st205" d="M67.5,91.123c-5.732,0-10.396-4.663-10.396-10.395c0-0.828,0.671-1.5,1.5-1.5h17.792
			c0.829,0,1.5,0.672,1.5,1.5C77.896,86.46,73.232,91.123,67.5,91.123z M60.257,82.229c0.695,3.36,3.679,5.895,7.243,5.895
			c3.564,0,6.548-2.534,7.244-5.895H60.257z"/>
	</g>
	<g>
		<circle class="st164" cx="67.5" cy="39.062" r="19.21"/>
	</g>
	<g>
		<circle class="st76" cx="67.5" cy="46.666" r="19.21"/>
	</g>
	<g>
		<path class="st205" d="M86.709,40.562c-0.829,0-1.5-0.672-1.5-1.5c0-9.766-7.944-17.711-17.709-17.711
			c-9.766,0-17.711,7.945-17.711,17.711c0,0.828-0.671,1.5-1.5,1.5s-1.5-0.672-1.5-1.5c0-11.42,9.291-20.711,20.711-20.711
			c11.419,0,20.709,9.291,20.709,20.711C88.209,39.891,87.538,40.562,86.709,40.562z"/>
	</g>
	<g>
		<path class="st205" d="M64.408,58.318c-0.25,0-0.5-0.006-0.75-0.017c-4.46-0.196-8.578-2.116-11.595-5.407
			c-7.64-8.343-7.071-21.346,1.269-28.986c0.611-0.561,1.56-0.518,2.119,0.092c0.56,0.611,0.518,1.56-0.093,2.119
			c-7.12,6.524-7.605,17.626-1.083,24.749c2.475,2.7,5.854,4.275,9.515,4.437c3.663,0.156,7.165-1.115,9.865-3.59
			c2.102-1.925,3.328-4.553,3.452-7.4c0.125-2.849-0.868-5.575-2.795-7.678c-3.067-3.348-8.289-3.578-11.639-0.511
			c-2.557,2.347-2.732,6.336-0.39,8.892c0.56,0.611,0.518,1.56-0.093,2.119c-0.61,0.562-1.56,0.519-2.119-0.092
			c-3.458-3.775-3.201-9.665,0.575-13.131c4.569-4.185,11.692-3.873,15.878,0.695c2.468,2.693,3.74,6.187,3.58,9.836
			c-0.159,3.648-1.729,7.016-4.422,9.481C72.575,56.773,68.597,58.318,64.408,58.318z"/>
	</g>
</g>
</svg>
