<?xml version="1.0" encoding="utf-8"?>
<!-- Generator: Adobe Illustrator 16.0.0, SVG Export Plug-In . SVG Version: 6.00 Build 0)  -->
<!DOCTYPE svg PUBLIC "-//W3C//DTD SVG 1.1//EN" "http://www.w3.org/Graphics/SVG/1.1/DTD/svg11.dtd">
<svg version="1.1" id="Layer_1" xmlns="http://www.w3.org/2000/svg" xmlns:xlink="http://www.w3.org/1999/xlink" x="0px" y="0px"
	 width="135px" height="135px" viewBox="0 0 135 135" style="enable-background:new 0 0 135 135;" xml:space="preserve">
<style type="text/css">
<![CDATA[
	.st0{fill:#465652;}
	.st1{fill:#AAB9BA;}
	.st2{fill:#47C67B;}
	.st3{fill:#AAC8D1;}
	.st4{fill:none;stroke:#E83834;stroke-width:6;stroke-linecap:round;stroke-linejoin:round;stroke-miterlimit:10;}
	.st5{fill:#7BC67B;}
	.st6{fill:#7BC7FF;}
	.st7{fill:#7C34C1;}
	.st8{fill:#7C8D96;}
	.st9{fill:#AD2707;}
	.st10{fill:#ADB8BC;}
	.st11{fill:#107510;}
	.st12{fill:#7FE5D8;}
	.st13{fill:#AF4AD1;}
	.st14{fill:#E02B7E;}
	.st15{fill:#E04038;}
	.st16{fill:#AFD7DD;}
	.st17{fill:#E0A010;}
	.st18{fill:#E0D5A4;}
	.st19{fill:#12B2B2;}
	.st20{fill:#12D66B;}
	.st21{fill:#E1A9FF;}
	.st22{fill:#1362A8;}
	.st23{fill:#E2378D;}
	.st24{fill:#E29C37;}
	.st25{fill:#E2B90E;}
	.st26{fill:#E2BF91;}
	.st27{fill:#E2CBAA;}
	.st28{fill:#14A594;}
	.st29{fill:#E4E9ED;}
	.st30{fill:#4A5D60;}
	.st31{fill:#E5B076;}
	.st32{fill:#E5B1C4;}
	.st33{fill:#E5E4C3;}
	.st34{fill:#4B6466;}
	.st35{fill:#E6FF2E;}
	.st36{fill:#18AA67;}
	.st37{fill:#E86207;}
	.st38{fill:#E8A113;}
	.st39{fill:#E8B5A6;}
	.st40{fill:#E8E8ED;}
	.st41{fill:#4E5154;}
	.st42{fill:#E9F1F4;}
	.st43{fill:#4F4B48;}
	.st44{fill:#4F74E8;}
	.st45{fill:#808E93;}
	.st46{fill:#80949B;}
	.st47{fill:#80EDAC;}
	.st48{fill:#B122E0;}
	.st49{fill:#B2C4CC;}
	.st50{fill:#83D839;}
	.st51{fill:#B3C6C6;}
	.st52{fill:none;stroke:#33363A;stroke-width:3;stroke-linecap:round;stroke-linejoin:round;stroke-miterlimit:10;}
	.st53{fill:#1A8E1C;}
	.st54{fill:#1A93D6;}
	.st55{fill:#B50B0B;}
	.st56{fill:#1AD88F;}
	.st57{fill:#B5DAF4;}
	.st58{fill:#EA7B1F;}
	.st59{fill:#EA81BD;}
	.st60{fill:#87B8D6;}
	.st61{fill:#87C3F4;}
	.st62{fill:#EAC79D;}
	.st63{fill:#EADF11;}
	.st64{fill:#EAE4C5;}
	.st65{fill:#B78094;}
	.st66{fill:#8844D8;}
	.st67{fill:#EBF4F7;}
	.st68{fill:#893015;}
	.st69{fill:#89410B;}
	.st70{fill:#899BA3;}
	.st71{fill:#EDE3B9;}
	.st72{enable-background:new    ;}
	.st73{fill:#50FF9F;}
	.st74{fill:#EEDCF4;}
	.st75{fill:#EFA37D;}
	.st76{fill:#EFA3CC;}
	.st77{fill:#EFC99A;}
	.st78{fill:#54AF79;}
	.st79{fill:#BA503A;}
	.st80{fill:#BA8663;}
	.st81{fill:#8B4FE0;}
	.st82{fill:#58ED9B;}
	.st83{fill:#BC7DFF;}
	.st84{fill:#8D9AA3;}
	.st85{fill:#BCCAD3;}
	.st86{fill:#8DE4FF;}
	.st87{fill:#20B518;}
	.st88{fill:#BF44F2;}
	.st89{fill:#21CEA1;}
	.st90{fill:#BFDAE0;}
	.st91{fill:#F0FBFC;}
	.st92{fill:#F2D9A7;}
	.st93{fill:#F2EAC9;}
	.st94{fill:#24D1AF;}
	.st95{fill:#25931C;}
	.st96{fill:#F4C4B3;}
	.st97{fill:#F4D3A2;}
	.st98{fill:#F4D647;}
	.st99{fill:#F4D7B8;}
	.st100{fill:#F4EC8E;}
	.st101{fill:#5B524D;}
	.st102{fill:#F77819;}
	.st103{fill:#F79AE1;}
	.st104{fill:#5E707A;}
	.st105{fill:#F93585;}
	.st106{fill:#F95D5D;}
	.st107{fill:#F9C19B;}
	.st108{fill:#F9CB58;}
	.st109{fill:#F9D2B2;}
	.st110{fill:#F9F07D;}
	.st111{fill:#F9F1D2;}
	.st112{fill:#F9F4B7;}
	.st113{fill:#F9F9E4;}
	.st114{fill:#5F1DAA;}
	.st115{fill:#5F9AD6;}
	.st116{fill:#C0C0C4;}
	.st117{fill:#91EA57;}
	.st118{fill:#C12727;}
	.st119{fill:#C191A0;}
	.st120{fill:#923BB7;}
	.st121{fill:#93A0A3;}
	.st122{fill:#93F9EA;}
	.st123{fill:#93FF5A;}
	.st124{fill:#C4833D;}
	.st125{fill:#95A2A5;}
	.st126{fill:#965514;}
	.st127{fill:#96562C;}
	.st128{fill:#2AF42F;}
	.st129{fill:#C5D7DD;}
	.st130{fill:#C68510;}
	.st131{fill:#C6A86D;}
	.st132{fill:#C6BB8D;}
	.st133{fill:#2C9DCE;}
	.st134{fill:#FBFCF2;}
	.st135{fill:#FC70B0;}
	.st136{fill:#FCE6C8;}
	.st137{fill:#FCF7E3;}
	.st138{fill:#C90D6B;}
	.st139{fill:#FDFEFF;}
	.st140{fill:#FDFFDC;}
	.st141{fill:#FF1A1A;}
	.st142{fill:#FF5252;}
	.st143{fill:#FF5B00;}
	.st144{fill:#FF6155;}
	.st145{fill:#FF630D;}
	.st146{fill:#FF6666;}
	.st147{fill:#FF7676;}
	.st148{fill:#FF7900;}
	.st149{fill:#FF860D;}
	.st150{fill:#FF8B00;}
	.st151{fill:#FF8F8F;}
	.st152{fill:#FF900B;}
	.st153{fill:#FF908A;}
	.st154{fill:#FF960B;}
	.st155{fill:#FF9C0D;}
	.st156{fill:#FFA9D4;}
	.st157{fill:#FFAA00;}
	.st158{fill:#FFAD40;}
	.st159{fill:#FFAF10;}
	.st160{fill:#FFB000;}
	.st161{fill:#FFBE08;}
	.st162{fill:#FFBF31;}
	.st163{fill:#FFC200;}
	.st164{fill:#FFCAE8;}
	.st165{fill:#FFCCF5;}
	.st166{fill:#FFD00B;}
	.st167{fill:#FFD039;}
	.st168{fill:#FFD400;}
	.st169{fill:#FFD833;}
	.st170{fill:#FFDB80;}
	.st171{fill:#FFDDD2;}
	.st172{fill:#FFE6D4;}
	.st173{fill:#FFE6EB;}
	.st174{fill:#FFE98D;}
	.st175{fill:#FFECD2;}
	.st176{fill:#FFF1D9;}
	.st177{fill:#FFF24D;}
	.st178{fill:#FFF3C2;}
	.st179{fill:#FFF4C7;}
	.st180{fill:#FFF800;}
	.st181{fill:#FFF80D;}
	.st182{fill:#FFF9DE;}
	.st183{fill:#FFFBD7;}
	.st184{fill:#FFFBEB;}
	.st185{fill:#FFFCC0;}
	.st186{fill:#FFFCDC;}
	.st187{fill:#FFFFFA;}
	.st188{fill:#FFFFFF;}
	.st189{fill:#63797F;}
	.st190{fill:#65E529;}
	.st191{fill:#66310E;}
	.st192{fill:#663C17;}
	.st193{fill:#9A5AE5;}
	.st194{fill:#CA30EF;}
	.st195{fill:#6892FC;}
	.st196{fill:#9CFFC4;}
	.st197{fill:#CC4306;}
	.st198{fill:#CC549E;}
	.st199{fill:#9E3256;}
	.st200{fill:#CDFFBB;}
	.st201{fill:#CE86AF;}
	.st202{fill:#CED9DD;}
	
		.st203{fill:none;stroke:#33363A;stroke-width:3;stroke-linecap:round;stroke-linejoin:round;stroke-miterlimit:10;stroke-dasharray:6;}
	.st204{fill:#CFE1E2;}
	.st205{fill:#33363A;}
	.st206{fill:#34C166;}
	.st207{fill:#364B5B;}
	.st208{fill:#3662CE;}
	.st209{fill:#36C6FF;}
	.st210{fill:#6ADB9A;}
	.st211{fill:#6D5C4D;}
	.st212{fill:#6EBDF9;}
	.st213{fill:#0031FF;}
	.st214{fill:#0062FF;}
	.st215{fill:#0068FF;}
	.st216{fill:#0086FF;}
	.st217{fill:#009BE8;}
	.st218{fill:#00AAFF;}
	.st219{fill:#D271FF;}
	.st220{fill:#D363A9;}
	.st221{fill:#D3964C;}
	.st222{fill:#D3DFE2;}
	.st223{fill:#D3E0E2;}
	.st224{fill:#D3EFF4;}
	.st225{fill:#063B66;}
	.st226{fill:#D60909;}
	.st227{fill:#D61D1D;}
	.st228{fill:#D7F0FF;}
	.st229{fill:#09B285;}
	.st230{fill:#D8D593;}
	.st231{fill:#D8E2EA;}
	.st232{fill:#D8E5EA;}
	.st233{fill:#3E5054;}
	.st234{fill:#D988FF;}
	.st235{fill:#D9E7E8;}
	.st236{fill:#702252;}
	.st237{fill:#70D3E0;}
	.st238{fill:#A02FF2;}
	.st239{fill:#A2F255;}
	.st240{fill:#A35616;}
	.st241{fill:#A3CCCC;}
	.st242{fill:#0A6ADD;}
	.st243{fill:#A5145D;}
	.st244{fill:#A57555;}
	.st245{fill:#77D6FC;}
	.st246{fill:#7815CE;}
	.st247{fill:#A7BBC1;}
	.st248{fill:#DBD279;}
	.st249{fill:#0D5C9E;}
	.st250{fill:#A83C11;}
	.st251{fill:#A8633D;}
	.st252{fill:#A8A3E5;}
	.st253{fill:#DCE6EA;}
	.st254{fill:#DCE7EA;}
	.st255{fill:#A962E8;}
	.st256{fill:#DD2466;}
	.st257{fill:#DDC38A;}
	.st258{fill:#DDD2B1;}
	.st259{fill:#DFE7E8;}
	.st260{fill:#42B1E8;}
	.st261{fill:#436377;}
	.st262{fill:#43B530;}
]]>
</style>
<g>
	<g>
		<g>
			<g>
				<g>
					<path class="st171" d="M124.705,71.193c0,22.873-27.14,41.422-57.205,41.422S10.295,94.066,10.295,71.193
						c0-22.877,27.14-50.289,57.205-50.289S124.705,48.316,124.705,71.193z"/>
				</g>
				<g>
					<path class="st96" d="M124.705,71.193c0,22.873-27.14,41.422-57.205,41.422S10.295,94.066,10.295,71.193
						c0-22.877,27.14-38.641,57.205-38.641S124.705,48.316,124.705,71.193z"/>
				</g>
				<g>
					<path class="st171" d="M79.093,84.221c0,1.543-5.19,1.82-11.592,1.82c-6.402,0-11.592-0.277-11.592-1.82
						c0-1.541,5.189-5.57,11.592-5.57C73.902,78.65,79.093,82.68,79.093,84.221z"/>
				</g>
				<g>
					<path class="st39" d="M124.705,71.193c0,22.873-27.14,41.422-57.205,41.422S10.295,94.066,10.295,71.193
						c0-22.879,9.692,20.289,57.205,20.289S124.705,48.314,124.705,71.193z"/>
				</g>
				<g>
					<path class="st205" d="M67.5,114.115c-31.821,0-58.705-19.656-58.705-42.922c0-23.312,27.089-51.789,58.705-51.789
						s58.705,28.477,58.705,51.789C126.205,94.459,99.321,114.115,67.5,114.115z M67.5,22.404
						c-24.555,0-55.705,22.972-55.705,48.789c0,10.442,5.93,20.41,16.697,28.065c10.597,7.535,24.815,11.856,39.008,11.856
						s28.411-4.321,39.008-11.856c10.768-7.655,16.697-17.623,16.697-28.065C123.205,45.376,92.055,22.404,67.5,22.404z"/>
				</g>
			</g>
			<g>
				<g>
					<path class="st171" d="M42.403,100.092c0-6.367,12.763-11.531,25.096-11.531c12.334,0,25.098,5.164,25.098,11.531
						c0,6.371-12.764,14.004-25.098,14.004C55.166,114.096,42.403,106.463,42.403,100.092z"/>
				</g>
				<g>
					<path class="st96" d="M42.403,100.092c0-6.367,12.763-11.531,25.096-11.531c12.334,0,25.098,5.164,25.098,11.531
						c0,6.371-12.764,10.76-25.098,10.76C55.166,110.852,42.403,106.463,42.403,100.092z"/>
				</g>
				<g>
					<path class="st171" d="M62.743,96.465c0-0.43,2.129-0.504,4.756-0.504c2.625,0,4.755,0.074,4.755,0.504
						s-2.13,1.551-4.755,1.551C64.872,98.016,62.743,96.895,62.743,96.465z"/>
				</g>
				<g>
					<path class="st39" d="M42.403,100.092c0-6.367,12.763-11.531,25.096-11.531c12.334,0,25.098,5.164,25.098,11.531
						c0,6.371-5.607-5.648-25.098-5.648C48.01,94.443,42.403,106.463,42.403,100.092z"/>
				</g>
				<g>
					<path class="st205" d="M67.499,115.596c-12.925,0-26.596-7.97-26.596-15.504c0-0.828,0.671-1.5,1.5-1.5s1.5,0.672,1.5,1.5
						c0,5.229,11.89,12.504,23.596,12.504c11.707,0,23.598-7.274,23.598-12.504c0-0.828,0.671-1.5,1.5-1.5s1.5,0.672,1.5,1.5
						C94.097,107.626,80.425,115.596,67.499,115.596z"/>
				</g>
			</g>
			<g>
				<g>
					<g>
						<g>
							<g>
								<path class="st133" d="M49.62,78.65c0,4.922-3.988,8.906-8.908,8.906c-4.919,0-8.906-3.984-8.906-8.906
									c0-4.92,3.987-8.908,8.906-8.908C45.632,69.742,49.62,73.73,49.62,78.65z"/>
							</g>
							<g>
								<path class="st205" d="M49.62,78.65c0,4.922-3.988,1.842-8.908,1.842c-4.919,0-8.906,3.08-8.906-1.842
									c0-4.92,3.987-8.908,8.906-8.908C45.632,69.742,49.62,73.73,49.62,78.65z"/>
							</g>
							<g>
								<path class="st205" d="M40.712,89.057c-5.738,0-10.406-4.668-10.406-10.406c0-5.739,4.668-10.408,10.406-10.408
									c5.739,0,10.408,4.669,10.408,10.408C51.12,84.389,46.451,89.057,40.712,89.057z M40.712,71.242
									c-4.084,0-7.406,3.323-7.406,7.408c0,4.084,3.322,7.406,7.406,7.406c4.085,0,7.408-3.322,7.408-7.406
									C48.12,74.565,44.797,71.242,40.712,71.242z"/>
							</g>
						</g>
						<g>
							<g>
								<circle class="st188" cx="36.282" cy="75.756" r="3.629"/>
							</g>
							<g>
								<path class="st205" d="M36.282,80.885c-2.828,0-5.129-2.301-5.129-5.129s2.301-5.129,5.129-5.129s5.129,2.301,5.129,5.129
									S39.11,80.885,36.282,80.885z M36.282,73.627c-1.174,0-2.129,0.955-2.129,2.129s0.955,2.129,2.129,2.129
									s2.129-0.955,2.129-2.129S37.456,73.627,36.282,73.627z"/>
							</g>
						</g>
					</g>
					<g>
						<g>
							<g>
								<path class="st133" d="M103.194,78.65c0,4.922-3.988,8.906-8.906,8.906c-4.92,0-8.908-3.984-8.908-8.906
									c0-4.92,3.988-8.908,8.908-8.908C99.206,69.742,103.194,73.73,103.194,78.65z"/>
							</g>
							<g>
								<path class="st205" d="M103.194,78.65c0,4.922-3.988,1.842-8.906,1.842c-4.92,0-8.908,3.08-8.908-1.842
									c0-4.92,3.988-8.908,8.908-8.908C99.206,69.742,103.194,73.73,103.194,78.65z"/>
							</g>
							<g>
								<path class="st205" d="M94.288,89.057c-5.739,0-10.408-4.668-10.408-10.406c0-5.739,4.669-10.408,10.408-10.408
									c5.738,0,10.406,4.669,10.406,10.408C104.694,84.389,100.026,89.057,94.288,89.057z M94.288,71.242
									c-4.085,0-7.408,3.323-7.408,7.408c0,4.084,3.323,7.406,7.408,7.406c4.084,0,7.406-3.322,7.406-7.406
									C101.694,74.565,98.372,71.242,94.288,71.242z"/>
							</g>
						</g>
						<g>
							<g>
								<circle class="st188" cx="89.857" cy="75.756" r="3.629"/>
							</g>
							<g>
								<path class="st205" d="M89.857,80.885c-2.828,0-5.129-2.301-5.129-5.129s2.301-5.129,5.129-5.129s5.129,2.301,5.129,5.129
									S92.686,80.885,89.857,80.885z M89.857,73.627c-1.174,0-2.129,0.955-2.129,2.129s0.955,2.129,2.129,2.129
									s2.129-0.955,2.129-2.129S91.031,73.627,89.857,73.627z"/>
							</g>
						</g>
					</g>
				</g>
			</g>
		</g>
	</g>
	<g>
		<g>
			<path class="st205" d="M38.392,71.242c-4.144,0-7.516-3.371-7.516-7.514c0-0.828,0.671-1.5,1.5-1.5s1.5,0.672,1.5,1.5
				c0,2.489,2.026,4.514,4.516,4.514c0.829,0,1.5,0.672,1.5,1.5S39.22,71.242,38.392,71.242z"/>
		</g>
		<g>
			<path class="st205" d="M96.608,71.242c-0.829,0-1.5-0.672-1.5-1.5s0.671-1.5,1.5-1.5c2.49,0,4.516-2.024,4.516-4.514
				c0-0.828,0.671-1.5,1.5-1.5s1.5,0.672,1.5,1.5C104.124,67.871,100.752,71.242,96.608,71.242z"/>
		</g>
	</g>
	<g>
		<g>
			<g>
				<path class="st171" d="M9.095,24.502c-5.533,13.869-5.002,29.779,2.061,43.447c3.682-7.838,9.139-14.992,16.312-20.816
					c7.176-5.824,15.298-9.695,23.729-11.691C39.269,25.723,23.81,21.936,9.095,24.502z"/>
			</g>
			<g>
				<path class="st96" d="M30.495,52.902c2.993-2.432,3.131-10.27,6.408-12.025c-7.648-7.85-17.595-13.074-28.313-15.004
					c-4.97,13.541-4.268,28.854,2.565,42.076C14.837,60.111,23.319,58.727,30.495,52.902z"/>
			</g>
			<g>
				<path class="st205" d="M11.157,69.449c-0.543,0-1.067-0.296-1.334-0.812C2.667,54.791,1.895,38.501,7.702,23.946
					c0.193-0.483,0.623-0.833,1.135-0.922c15.439-2.696,31.225,1.409,43.307,11.254c0.643,0.523,0.739,1.469,0.216,2.11
					c-0.524,0.644-1.468,0.738-2.11,0.216c-11.192-9.119-25.75-13.018-40.066-10.763c-5.149,13.546-4.322,28.594,2.305,41.419
					c0.38,0.736,0.092,1.641-0.644,2.021C11.624,69.396,11.388,69.449,11.157,69.449z"/>
			</g>
		</g>
		<g>
			<g>
				<path class="st171" d="M125.905,24.502c5.533,13.869,5.002,29.779-2.061,43.447c-3.682-7.838-9.139-14.992-16.312-20.816
					c-7.176-5.824-15.299-9.695-23.729-11.691C95.73,25.723,111.189,21.936,125.905,24.502z"/>
			</g>
			<g>
				<path class="st96" d="M104.505,52.902c-2.993-2.432-3.131-10.27-6.408-12.025c7.648-7.85,17.594-13.074,28.313-15.004
					c4.97,13.541,4.268,28.854-2.565,42.076C120.163,60.111,111.68,58.727,104.505,52.902z"/>
			</g>
			<g>
				<path class="st205" d="M123.843,69.449c-0.231,0-0.467-0.054-0.687-0.167c-0.736-0.381-1.024-1.285-0.644-2.021
					c6.627-12.825,7.454-27.873,2.305-41.419c-14.317-2.255-28.875,1.643-40.066,10.763c-0.643,0.522-1.587,0.427-2.11-0.216
					c-0.523-0.642-0.427-1.587,0.215-2.11c12.083-9.845,27.868-13.947,43.307-11.254c0.513,0.089,0.942,0.438,1.135,0.922
					c5.807,14.555,5.034,30.845-2.121,44.691C124.911,69.153,124.387,69.449,123.843,69.449z"/>
			</g>
		</g>
	</g>
</g>
</svg>
