<?xml version="1.0" encoding="utf-8"?>
<!-- Generator: Adobe Illustrator 16.0.0, SVG Export Plug-In . SVG Version: 6.00 Build 0)  -->
<!DOCTYPE svg PUBLIC "-//W3C//DTD SVG 1.1//EN" "http://www.w3.org/Graphics/SVG/1.1/DTD/svg11.dtd">
<svg version="1.1" id="Layer_1" xmlns="http://www.w3.org/2000/svg" xmlns:xlink="http://www.w3.org/1999/xlink" x="0px" y="0px"
	 width="135px" height="135px" viewBox="0 0 135 135" style="enable-background:new 0 0 135 135;" xml:space="preserve">
<style type="text/css">
<![CDATA[
	.st0{fill:#465652;}
	.st1{fill:#AAB9BA;}
	.st2{fill:#47C67B;}
	.st3{fill:#AAC8D1;}
	.st4{fill:none;stroke:#E83834;stroke-width:6;stroke-linecap:round;stroke-linejoin:round;stroke-miterlimit:10;}
	.st5{fill:#7BC67B;}
	.st6{fill:#7BC7FF;}
	.st7{fill:#7C34C1;}
	.st8{fill:#7C8D96;}
	.st9{fill:#AD2707;}
	.st10{fill:#ADB8BC;}
	.st11{fill:#107510;}
	.st12{fill:#7FE5D8;}
	.st13{fill:#AF4AD1;}
	.st14{fill:#E02B7E;}
	.st15{fill:#E04038;}
	.st16{fill:#AFD7DD;}
	.st17{fill:#E0A010;}
	.st18{fill:#E0D5A4;}
	.st19{fill:#12B2B2;}
	.st20{fill:#12D66B;}
	.st21{fill:#E1A9FF;}
	.st22{fill:#1362A8;}
	.st23{fill:#E2378D;}
	.st24{fill:#E29C37;}
	.st25{fill:#E2B90E;}
	.st26{fill:#E2BF91;}
	.st27{fill:#E2CBAA;}
	.st28{fill:#14A594;}
	.st29{fill:#E4E9ED;}
	.st30{fill:#4A5D60;}
	.st31{fill:#E5B076;}
	.st32{fill:#E5B1C4;}
	.st33{fill:#E5E4C3;}
	.st34{fill:#4B6466;}
	.st35{fill:#E6FF2E;}
	.st36{fill:#18AA67;}
	.st37{fill:#E86207;}
	.st38{fill:#E8A113;}
	.st39{fill:#E8B5A6;}
	.st40{fill:#E8E8ED;}
	.st41{fill:#4E5154;}
	.st42{fill:#E9F1F4;}
	.st43{fill:#4F4B48;}
	.st44{fill:#4F74E8;}
	.st45{fill:#808E93;}
	.st46{fill:#80949B;}
	.st47{fill:#80EDAC;}
	.st48{fill:#B122E0;}
	.st49{fill:#B2C4CC;}
	.st50{fill:#83D839;}
	.st51{fill:#B3C6C6;}
	.st52{fill:none;stroke:#33363A;stroke-width:3;stroke-linecap:round;stroke-linejoin:round;stroke-miterlimit:10;}
	.st53{fill:#1A8E1C;}
	.st54{fill:#1A93D6;}
	.st55{fill:#B50B0B;}
	.st56{fill:#1AD88F;}
	.st57{fill:#B5DAF4;}
	.st58{fill:#EA7B1F;}
	.st59{fill:#EA81BD;}
	.st60{fill:#87B8D6;}
	.st61{fill:#87C3F4;}
	.st62{fill:#EAC79D;}
	.st63{fill:#EADF11;}
	.st64{fill:#EAE4C5;}
	.st65{fill:#B78094;}
	.st66{fill:#8844D8;}
	.st67{fill:#EBF4F7;}
	.st68{fill:#893015;}
	.st69{fill:#89410B;}
	.st70{fill:#899BA3;}
	.st71{fill:#EDE3B9;}
	.st72{enable-background:new    ;}
	.st73{fill:#50FF9F;}
	.st74{fill:#EEDCF4;}
	.st75{fill:#EFA37D;}
	.st76{fill:#EFA3CC;}
	.st77{fill:#EFC99A;}
	.st78{fill:#54AF79;}
	.st79{fill:#BA503A;}
	.st80{fill:#BA8663;}
	.st81{fill:#8B4FE0;}
	.st82{fill:#58ED9B;}
	.st83{fill:#BC7DFF;}
	.st84{fill:#8D9AA3;}
	.st85{fill:#BCCAD3;}
	.st86{fill:#8DE4FF;}
	.st87{fill:#20B518;}
	.st88{fill:#BF44F2;}
	.st89{fill:#21CEA1;}
	.st90{fill:#BFDAE0;}
	.st91{fill:#F0FBFC;}
	.st92{fill:#F2D9A7;}
	.st93{fill:#F2EAC9;}
	.st94{fill:#24D1AF;}
	.st95{fill:#25931C;}
	.st96{fill:#F4C4B3;}
	.st97{fill:#F4D3A2;}
	.st98{fill:#F4D647;}
	.st99{fill:#F4D7B8;}
	.st100{fill:#F4EC8E;}
	.st101{fill:#5B524D;}
	.st102{fill:#F77819;}
	.st103{fill:#F79AE1;}
	.st104{fill:#5E707A;}
	.st105{fill:#F93585;}
	.st106{fill:#F95D5D;}
	.st107{fill:#F9C19B;}
	.st108{fill:#F9CB58;}
	.st109{fill:#F9D2B2;}
	.st110{fill:#F9F07D;}
	.st111{fill:#F9F1D2;}
	.st112{fill:#F9F4B7;}
	.st113{fill:#F9F9E4;}
	.st114{fill:#5F1DAA;}
	.st115{fill:#5F9AD6;}
	.st116{fill:#C0C0C4;}
	.st117{fill:#91EA57;}
	.st118{fill:#C12727;}
	.st119{fill:#C191A0;}
	.st120{fill:#923BB7;}
	.st121{fill:#93A0A3;}
	.st122{fill:#93F9EA;}
	.st123{fill:#93FF5A;}
	.st124{fill:#C4833D;}
	.st125{fill:#95A2A5;}
	.st126{fill:#965514;}
	.st127{fill:#96562C;}
	.st128{fill:#2AF42F;}
	.st129{fill:#C5D7DD;}
	.st130{fill:#C68510;}
	.st131{fill:#C6A86D;}
	.st132{fill:#C6BB8D;}
	.st133{fill:#2C9DCE;}
	.st134{fill:#FBFCF2;}
	.st135{fill:#FC70B0;}
	.st136{fill:#FCE6C8;}
	.st137{fill:#FCF7E3;}
	.st138{fill:#C90D6B;}
	.st139{fill:#FDFEFF;}
	.st140{fill:#FDFFDC;}
	.st141{fill:#FF1A1A;}
	.st142{fill:#FF5252;}
	.st143{fill:#FF5B00;}
	.st144{fill:#FF6155;}
	.st145{fill:#FF630D;}
	.st146{fill:#FF6666;}
	.st147{fill:#FF7676;}
	.st148{fill:#FF7900;}
	.st149{fill:#FF860D;}
	.st150{fill:#FF8B00;}
	.st151{fill:#FF8F8F;}
	.st152{fill:#FF900B;}
	.st153{fill:#FF908A;}
	.st154{fill:#FF960B;}
	.st155{fill:#FF9C0D;}
	.st156{fill:#FFA9D4;}
	.st157{fill:#FFAA00;}
	.st158{fill:#FFAD40;}
	.st159{fill:#FFAF10;}
	.st160{fill:#FFB000;}
	.st161{fill:#FFBE08;}
	.st162{fill:#FFBF31;}
	.st163{fill:#FFC200;}
	.st164{fill:#FFCAE8;}
	.st165{fill:#FFCCF5;}
	.st166{fill:#FFD00B;}
	.st167{fill:#FFD039;}
	.st168{fill:#FFD400;}
	.st169{fill:#FFD833;}
	.st170{fill:#FFDB80;}
	.st171{fill:#FFDDD2;}
	.st172{fill:#FFE6D4;}
	.st173{fill:#FFE6EB;}
	.st174{fill:#FFE98D;}
	.st175{fill:#FFECD2;}
	.st176{fill:#FFF1D9;}
	.st177{fill:#FFF24D;}
	.st178{fill:#FFF3C2;}
	.st179{fill:#FFF4C7;}
	.st180{fill:#FFF800;}
	.st181{fill:#FFF80D;}
	.st182{fill:#FFF9DE;}
	.st183{fill:#FFFBD7;}
	.st184{fill:#FFFBEB;}
	.st185{fill:#FFFCC0;}
	.st186{fill:#FFFCDC;}
	.st187{fill:#FFFFFA;}
	.st188{fill:#FFFFFF;}
	.st189{fill:#63797F;}
	.st190{fill:#65E529;}
	.st191{fill:#66310E;}
	.st192{fill:#663C17;}
	.st193{fill:#9A5AE5;}
	.st194{fill:#CA30EF;}
	.st195{fill:#6892FC;}
	.st196{fill:#9CFFC4;}
	.st197{fill:#CC4306;}
	.st198{fill:#CC549E;}
	.st199{fill:#9E3256;}
	.st200{fill:#CDFFBB;}
	.st201{fill:#CE86AF;}
	.st202{fill:#CED9DD;}
	
		.st203{fill:none;stroke:#33363A;stroke-width:3;stroke-linecap:round;stroke-linejoin:round;stroke-miterlimit:10;stroke-dasharray:6;}
	.st204{fill:#CFE1E2;}
	.st205{fill:#33363A;}
	.st206{fill:#34C166;}
	.st207{fill:#364B5B;}
	.st208{fill:#3662CE;}
	.st209{fill:#36C6FF;}
	.st210{fill:#6ADB9A;}
	.st211{fill:#6D5C4D;}
	.st212{fill:#6EBDF9;}
	.st213{fill:#0031FF;}
	.st214{fill:#0062FF;}
	.st215{fill:#0068FF;}
	.st216{fill:#0086FF;}
	.st217{fill:#009BE8;}
	.st218{fill:#00AAFF;}
	.st219{fill:#D271FF;}
	.st220{fill:#D363A9;}
	.st221{fill:#D3964C;}
	.st222{fill:#D3DFE2;}
	.st223{fill:#D3E0E2;}
	.st224{fill:#D3EFF4;}
	.st225{fill:#063B66;}
	.st226{fill:#D60909;}
	.st227{fill:#D61D1D;}
	.st228{fill:#D7F0FF;}
	.st229{fill:#09B285;}
	.st230{fill:#D8D593;}
	.st231{fill:#D8E2EA;}
	.st232{fill:#D8E5EA;}
	.st233{fill:#3E5054;}
	.st234{fill:#D988FF;}
	.st235{fill:#D9E7E8;}
	.st236{fill:#702252;}
	.st237{fill:#70D3E0;}
	.st238{fill:#A02FF2;}
	.st239{fill:#A2F255;}
	.st240{fill:#A35616;}
	.st241{fill:#A3CCCC;}
	.st242{fill:#0A6ADD;}
	.st243{fill:#A5145D;}
	.st244{fill:#A57555;}
	.st245{fill:#77D6FC;}
	.st246{fill:#7815CE;}
	.st247{fill:#A7BBC1;}
	.st248{fill:#DBD279;}
	.st249{fill:#0D5C9E;}
	.st250{fill:#A83C11;}
	.st251{fill:#A8633D;}
	.st252{fill:#A8A3E5;}
	.st253{fill:#DCE6EA;}
	.st254{fill:#DCE7EA;}
	.st255{fill:#A962E8;}
	.st256{fill:#DD2466;}
	.st257{fill:#DDC38A;}
	.st258{fill:#DDD2B1;}
	.st259{fill:#DFE7E8;}
	.st260{fill:#42B1E8;}
	.st261{fill:#436377;}
	.st262{fill:#43B530;}
]]>
</style>
<g>
	<g>
		<g>
			<path class="st188" d="M103.119,125.68c0,2.248-1.822,4.07-4.07,4.07H35.951c-2.248,0-4.07-1.822-4.07-4.07V9.32
				c0-2.248,1.822-4.07,4.07-4.07h63.098c2.248,0,4.07,1.822,4.07,4.07V125.68z"/>
		</g>
		<g>
			<path class="st85" d="M93.723,125.68c0,2.248-1.34,4.07-2.996,4.07H44.271c-1.652,0-2.994-1.822-2.994-4.07V9.32
				c0-2.248,1.342-4.07,2.994-4.07h46.455c1.656,0,2.996,1.822,2.996,4.07V125.68z"/>
		</g>
		<g>
			<rect x="31.881" y="17.037" class="st218" width="71.238" height="96.684"/>
		</g>
		<g>
			<rect x="40.033" y="17.037" class="st215" width="55.094" height="96.684"/>
		</g>
		<g>
			<path class="st205" d="M103.119,114.881H31.881c-0.828,0-1.5-0.671-1.5-1.5V16.699c0-0.829,0.672-1.5,1.5-1.5h71.238
				c0.828,0,1.5,0.671,1.5,1.5v96.682C104.619,114.209,103.947,114.881,103.119,114.881z M33.381,111.881h68.238V18.199H33.381
				V111.881z"/>
		</g>
		<g>
			<path class="st205" d="M99.049,131.25H35.951c-3.071,0-5.57-2.499-5.57-5.57V9.32c0-3.071,2.499-5.57,5.57-5.57h63.098
				c3.071,0,5.57,2.499,5.57,5.57V125.68C104.619,128.751,102.12,131.25,99.049,131.25z M35.951,6.75c-1.417,0-2.57,1.153-2.57,2.57
				V125.68c0,1.417,1.153,2.57,2.57,2.57h63.098c1.417,0,2.57-1.153,2.57-2.57V9.32c0-1.417-1.153-2.57-2.57-2.57H35.951z"/>
		</g>
		<g>
			<path class="st205" d="M73.49,126.445H61.51c-2.714,0-4.922-2.208-4.922-4.922c0-2.715,2.208-4.924,4.922-4.924h11.98
				c2.714,0,4.922,2.209,4.922,4.924C78.412,124.237,76.204,126.445,73.49,126.445z M61.51,119.6c-1.06,0-1.922,0.863-1.922,1.924
				c0,1.06,0.862,1.922,1.922,1.922h11.98c1.06,0,1.922-0.862,1.922-1.922c0-1.061-0.862-1.924-1.922-1.924H61.51z"/>
		</g>
		<g>
			<path class="st205" d="M92.264,13.379c-1.438,0-2.609-1.17-2.609-2.608c0-1.439,1.171-2.61,2.609-2.61s2.609,1.171,2.609,2.61
				C94.873,12.209,93.702,13.379,92.264,13.379z M92.264,10.379c-0.216,0-0.391,0.176-0.391,0.392c0,0.215,0.175,0.39,0.391,0.39
				s0.391-0.175,0.391-0.39C92.654,10.551,92.482,10.379,92.264,10.379z"/>
		</g>
		<g>
			<path class="st205" d="M74.539,12.523H60.461c-0.828,0-1.5-0.671-1.5-1.5s0.672-1.5,1.5-1.5h14.078c0.828,0,1.5,0.671,1.5,1.5
				S75.367,12.523,74.539,12.523z"/>
		</g>
	</g>
	<g>
		<g>
			<path class="st151" d="M92.551,65.376c0,13.838-11.217,25.054-25.051,25.054c-13.836,0-25.051-11.216-25.051-25.054
				c0-13.834,11.215-25.049,25.051-25.049C81.334,40.327,92.551,51.542,92.551,65.376z"/>
		</g>
		<g>
			<path class="st141" d="M92.551,65.376c0,10.599-11.217,19.19-25.051,19.19c-13.836,0-25.051-8.592-25.051-19.19
				c0-10.594,11.215-19.186,25.051-19.186C81.334,46.19,92.551,54.782,92.551,65.376z"/>
		</g>
		<g>
			<path class="st188" d="M42.449,65.376c0,13.838,11.215,25.054,25.051,25.054c13.834,0,25.051-11.216,25.051-25.054H42.449z"/>
		</g>
		<g>
			<path class="st232" d="M67.5,84.566c13.834,0,25.051-8.592,25.051-19.19H42.449C42.449,75.975,53.664,84.566,67.5,84.566z"/>
		</g>
		<g>
			<path class="st205" d="M67.5,91.93c-14.641,0-26.551-11.912-26.551-26.554c0-14.639,11.91-26.549,26.551-26.549
				s26.551,11.91,26.551,26.549C94.051,80.018,82.141,91.93,67.5,91.93z M67.5,41.827c-12.986,0-23.551,10.564-23.551,23.549
				c0,12.988,10.564,23.554,23.551,23.554s23.551-10.566,23.551-23.554C91.051,52.391,80.486,41.827,67.5,41.827z"/>
		</g>
		<g>
			<path class="st205" d="M92.551,66.876H42.449c-0.828,0-1.5-0.671-1.5-1.5s0.672-1.5,1.5-1.5h50.102c0.828,0,1.5,0.671,1.5,1.5
				S93.379,66.876,92.551,66.876z"/>
		</g>
		<g>
			<g>
				<path class="st247" d="M73.355,62.39c3.236,3.238,3.236,8.479,0,11.715c-3.234,3.235-8.477,3.235-11.713,0
					c-3.234-3.236-3.234-8.477,0-11.715C64.879,59.157,70.121,59.157,73.355,62.39z"/>
			</g>
			<g>
				<path class="st188" d="M73.355,59.575c3.236,3.234,3.236,8.479,0,11.715c-3.234,3.231-8.477,3.231-11.713,0
					c-3.234-3.236-3.234-8.48,0-11.715C64.879,56.339,70.121,56.339,73.355,59.575z"/>
			</g>
			<g>
				<path class="st232" d="M61.643,71.29c-3.234-3.236-3.234-8.48,0-11.715c3.236-3.236,8.479-3.236,11.713,0"/>
			</g>
			<g>
				<path class="st205" d="M67.5,75.214c-2.612,0-5.068-1.017-6.917-2.862c-3.814-3.817-3.814-10.023-0.001-13.837
					c1.849-1.849,4.306-2.867,6.918-2.867s5.068,1.018,6.916,2.867c1.849,1.847,2.867,4.304,2.867,6.917
					c0,2.613-1.019,5.07-2.867,6.918C72.568,74.197,70.112,75.214,67.5,75.214z M67.5,58.648c-1.812,0-3.515,0.706-4.797,1.988
					c-2.644,2.644-2.644,6.948,0,9.594c1.281,1.279,2.985,1.984,4.797,1.984s3.515-0.705,4.795-1.985
					c1.282-1.282,1.988-2.985,1.988-4.797c0-1.812-0.706-3.515-1.988-4.796C71.014,59.354,69.311,58.648,67.5,58.648z"/>
			</g>
		</g>
	</g>
</g>
</svg>
