<?xml version="1.0" encoding="utf-8"?>
<!-- Generator: Adobe Illustrator 16.0.0, SVG Export Plug-In . SVG Version: 6.00 Build 0)  -->
<!DOCTYPE svg PUBLIC "-//W3C//DTD SVG 1.1//EN" "http://www.w3.org/Graphics/SVG/1.1/DTD/svg11.dtd">
<svg version="1.1" id="Layer_1" xmlns="http://www.w3.org/2000/svg" xmlns:xlink="http://www.w3.org/1999/xlink" x="0px" y="0px"
	 width="135px" height="135px" viewBox="0 0 135 135" style="enable-background:new 0 0 135 135;" xml:space="preserve">
<style type="text/css">
<![CDATA[
	.st0{fill:#465652;}
	.st1{fill:#AAB9BA;}
	.st2{fill:#47C67B;}
	.st3{fill:#AAC8D1;}
	.st4{fill:none;stroke:#E83834;stroke-width:6;stroke-linecap:round;stroke-linejoin:round;stroke-miterlimit:10;}
	.st5{fill:#7BC67B;}
	.st6{fill:#7BC7FF;}
	.st7{fill:#7C34C1;}
	.st8{fill:#7C8D96;}
	.st9{fill:#AD2707;}
	.st10{fill:#ADB8BC;}
	.st11{fill:#107510;}
	.st12{fill:#7FE5D8;}
	.st13{fill:#AF4AD1;}
	.st14{fill:#E02B7E;}
	.st15{fill:#E04038;}
	.st16{fill:#AFD7DD;}
	.st17{fill:#E0A010;}
	.st18{fill:#E0D5A4;}
	.st19{fill:#12B2B2;}
	.st20{fill:#12D66B;}
	.st21{fill:#E1A9FF;}
	.st22{fill:#1362A8;}
	.st23{fill:#E2378D;}
	.st24{fill:#E29C37;}
	.st25{fill:#E2B90E;}
	.st26{fill:#E2BF91;}
	.st27{fill:#E2CBAA;}
	.st28{fill:#14A594;}
	.st29{fill:#E4E9ED;}
	.st30{fill:#4A5D60;}
	.st31{fill:#E5B076;}
	.st32{fill:#E5B1C4;}
	.st33{fill:#E5E4C3;}
	.st34{fill:#4B6466;}
	.st35{fill:#E6FF2E;}
	.st36{fill:#18AA67;}
	.st37{fill:#E86207;}
	.st38{fill:#E8A113;}
	.st39{fill:#E8B5A6;}
	.st40{fill:#E8E8ED;}
	.st41{fill:#4E5154;}
	.st42{fill:#E9F1F4;}
	.st43{fill:#4F4B48;}
	.st44{fill:#4F74E8;}
	.st45{fill:#808E93;}
	.st46{fill:#80949B;}
	.st47{fill:#80EDAC;}
	.st48{fill:#B122E0;}
	.st49{fill:#B2C4CC;}
	.st50{fill:#83D839;}
	.st51{fill:#B3C6C6;}
	.st52{fill:none;stroke:#33363A;stroke-width:3;stroke-linecap:round;stroke-linejoin:round;stroke-miterlimit:10;}
	.st53{fill:#1A8E1C;}
	.st54{fill:#1A93D6;}
	.st55{fill:#B50B0B;}
	.st56{fill:#1AD88F;}
	.st57{fill:#B5DAF4;}
	.st58{fill:#EA7B1F;}
	.st59{fill:#EA81BD;}
	.st60{fill:#87B8D6;}
	.st61{fill:#87C3F4;}
	.st62{fill:#EAC79D;}
	.st63{fill:#EADF11;}
	.st64{fill:#EAE4C5;}
	.st65{fill:#B78094;}
	.st66{fill:#8844D8;}
	.st67{fill:#EBF4F7;}
	.st68{fill:#893015;}
	.st69{fill:#89410B;}
	.st70{fill:#899BA3;}
	.st71{fill:#EDE3B9;}
	.st72{enable-background:new    ;}
	.st73{fill:#50FF9F;}
	.st74{fill:#EEDCF4;}
	.st75{fill:#EFA37D;}
	.st76{fill:#EFA3CC;}
	.st77{fill:#EFC99A;}
	.st78{fill:#54AF79;}
	.st79{fill:#BA503A;}
	.st80{fill:#BA8663;}
	.st81{fill:#8B4FE0;}
	.st82{fill:#58ED9B;}
	.st83{fill:#BC7DFF;}
	.st84{fill:#8D9AA3;}
	.st85{fill:#BCCAD3;}
	.st86{fill:#8DE4FF;}
	.st87{fill:#20B518;}
	.st88{fill:#BF44F2;}
	.st89{fill:#21CEA1;}
	.st90{fill:#BFDAE0;}
	.st91{fill:#F0FBFC;}
	.st92{fill:#F2D9A7;}
	.st93{fill:#F2EAC9;}
	.st94{fill:#24D1AF;}
	.st95{fill:#25931C;}
	.st96{fill:#F4C4B3;}
	.st97{fill:#F4D3A2;}
	.st98{fill:#F4D647;}
	.st99{fill:#F4D7B8;}
	.st100{fill:#F4EC8E;}
	.st101{fill:#5B524D;}
	.st102{fill:#F77819;}
	.st103{fill:#F79AE1;}
	.st104{fill:#5E707A;}
	.st105{fill:#F93585;}
	.st106{fill:#F95D5D;}
	.st107{fill:#F9C19B;}
	.st108{fill:#F9CB58;}
	.st109{fill:#F9D2B2;}
	.st110{fill:#F9F07D;}
	.st111{fill:#F9F1D2;}
	.st112{fill:#F9F4B7;}
	.st113{fill:#F9F9E4;}
	.st114{fill:#5F1DAA;}
	.st115{fill:#5F9AD6;}
	.st116{fill:#C0C0C4;}
	.st117{fill:#91EA57;}
	.st118{fill:#C12727;}
	.st119{fill:#C191A0;}
	.st120{fill:#923BB7;}
	.st121{fill:#93A0A3;}
	.st122{fill:#93F9EA;}
	.st123{fill:#93FF5A;}
	.st124{fill:#C4833D;}
	.st125{fill:#95A2A5;}
	.st126{fill:#965514;}
	.st127{fill:#96562C;}
	.st128{fill:#2AF42F;}
	.st129{fill:#C5D7DD;}
	.st130{fill:#C68510;}
	.st131{fill:#C6A86D;}
	.st132{fill:#C6BB8D;}
	.st133{fill:#2C9DCE;}
	.st134{fill:#FBFCF2;}
	.st135{fill:#FC70B0;}
	.st136{fill:#FCE6C8;}
	.st137{fill:#FCF7E3;}
	.st138{fill:#C90D6B;}
	.st139{fill:#FDFEFF;}
	.st140{fill:#FDFFDC;}
	.st141{fill:#FF1A1A;}
	.st142{fill:#FF5252;}
	.st143{fill:#FF5B00;}
	.st144{fill:#FF6155;}
	.st145{fill:#FF630D;}
	.st146{fill:#FF6666;}
	.st147{fill:#FF7676;}
	.st148{fill:#FF7900;}
	.st149{fill:#FF860D;}
	.st150{fill:#FF8B00;}
	.st151{fill:#FF8F8F;}
	.st152{fill:#FF900B;}
	.st153{fill:#FF908A;}
	.st154{fill:#FF960B;}
	.st155{fill:#FF9C0D;}
	.st156{fill:#FFA9D4;}
	.st157{fill:#FFAA00;}
	.st158{fill:#FFAD40;}
	.st159{fill:#FFAF10;}
	.st160{fill:#FFB000;}
	.st161{fill:#FFBE08;}
	.st162{fill:#FFBF31;}
	.st163{fill:#FFC200;}
	.st164{fill:#FFCAE8;}
	.st165{fill:#FFCCF5;}
	.st166{fill:#FFD00B;}
	.st167{fill:#FFD039;}
	.st168{fill:#FFD400;}
	.st169{fill:#FFD833;}
	.st170{fill:#FFDB80;}
	.st171{fill:#FFDDD2;}
	.st172{fill:#FFE6D4;}
	.st173{fill:#FFE6EB;}
	.st174{fill:#FFE98D;}
	.st175{fill:#FFECD2;}
	.st176{fill:#FFF1D9;}
	.st177{fill:#FFF24D;}
	.st178{fill:#FFF3C2;}
	.st179{fill:#FFF4C7;}
	.st180{fill:#FFF800;}
	.st181{fill:#FFF80D;}
	.st182{fill:#FFF9DE;}
	.st183{fill:#FFFBD7;}
	.st184{fill:#FFFBEB;}
	.st185{fill:#FFFCC0;}
	.st186{fill:#FFFCDC;}
	.st187{fill:#FFFFFA;}
	.st188{fill:#FFFFFF;}
	.st189{fill:#63797F;}
	.st190{fill:#65E529;}
	.st191{fill:#66310E;}
	.st192{fill:#663C17;}
	.st193{fill:#9A5AE5;}
	.st194{fill:#CA30EF;}
	.st195{fill:#6892FC;}
	.st196{fill:#9CFFC4;}
	.st197{fill:#CC4306;}
	.st198{fill:#CC549E;}
	.st199{fill:#9E3256;}
	.st200{fill:#CDFFBB;}
	.st201{fill:#CE86AF;}
	.st202{fill:#CED9DD;}
	
		.st203{fill:none;stroke:#33363A;stroke-width:3;stroke-linecap:round;stroke-linejoin:round;stroke-miterlimit:10;stroke-dasharray:6;}
	.st204{fill:#CFE1E2;}
	.st205{fill:#33363A;}
	.st206{fill:#34C166;}
	.st207{fill:#364B5B;}
	.st208{fill:#3662CE;}
	.st209{fill:#36C6FF;}
	.st210{fill:#6ADB9A;}
	.st211{fill:#6D5C4D;}
	.st212{fill:#6EBDF9;}
	.st213{fill:#0031FF;}
	.st214{fill:#0062FF;}
	.st215{fill:#0068FF;}
	.st216{fill:#0086FF;}
	.st217{fill:#009BE8;}
	.st218{fill:#00AAFF;}
	.st219{fill:#D271FF;}
	.st220{fill:#D363A9;}
	.st221{fill:#D3964C;}
	.st222{fill:#D3DFE2;}
	.st223{fill:#D3E0E2;}
	.st224{fill:#D3EFF4;}
	.st225{fill:#063B66;}
	.st226{fill:#D60909;}
	.st227{fill:#D61D1D;}
	.st228{fill:#D7F0FF;}
	.st229{fill:#09B285;}
	.st230{fill:#D8D593;}
	.st231{fill:#D8E2EA;}
	.st232{fill:#D8E5EA;}
	.st233{fill:#3E5054;}
	.st234{fill:#D988FF;}
	.st235{fill:#D9E7E8;}
	.st236{fill:#702252;}
	.st237{fill:#70D3E0;}
	.st238{fill:#A02FF2;}
	.st239{fill:#A2F255;}
	.st240{fill:#A35616;}
	.st241{fill:#A3CCCC;}
	.st242{fill:#0A6ADD;}
	.st243{fill:#A5145D;}
	.st244{fill:#A57555;}
	.st245{fill:#77D6FC;}
	.st246{fill:#7815CE;}
	.st247{fill:#A7BBC1;}
	.st248{fill:#DBD279;}
	.st249{fill:#0D5C9E;}
	.st250{fill:#A83C11;}
	.st251{fill:#A8633D;}
	.st252{fill:#A8A3E5;}
	.st253{fill:#DCE6EA;}
	.st254{fill:#DCE7EA;}
	.st255{fill:#A962E8;}
	.st256{fill:#DD2466;}
	.st257{fill:#DDC38A;}
	.st258{fill:#DDD2B1;}
	.st259{fill:#DFE7E8;}
	.st260{fill:#42B1E8;}
	.st261{fill:#436377;}
	.st262{fill:#43B530;}
]]>
</style>
<g>
	<g>
		<g>
			<circle class="st141" cx="36.079" cy="94.203" r="30.737"/>
		</g>
		<g>
			<ellipse class="st226" cx="36.079" cy="94.203" rx="30.737" ry="23.543"/>
		</g>
		<g>
			<path class="st188" d="M5.343,94.203c0,16.978,13.761,30.737,30.737,30.737c16.975,0,30.736-13.76,30.736-30.737H5.343z"/>
		</g>
		<g>
			<path class="st232" d="M36.08,117.746c16.975,0,30.736-10.541,30.736-23.543H5.343C5.343,107.205,19.104,117.746,36.08,117.746z"
				/>
		</g>
		<g>
			<path class="st205" d="M36.08,126.44c-17.775,0-32.237-14.461-32.237-32.237c0-17.775,14.461-32.236,32.237-32.236
				s32.236,14.461,32.236,32.236C68.316,111.979,53.855,126.44,36.08,126.44z M36.08,64.966c-16.121,0-29.237,13.115-29.237,29.236
				c0,16.122,13.116,29.237,29.237,29.237s29.236-13.116,29.236-29.237C65.316,78.082,52.201,64.966,36.08,64.966z"/>
		</g>
		<g>
			<path class="st205" d="M66.816,95.703H5.343c-0.829,0-1.5-0.671-1.5-1.5s0.671-1.5,1.5-1.5h61.473c0.829,0,1.5,0.671,1.5,1.5
				S67.645,95.703,66.816,95.703z"/>
		</g>
		<g>
			<g>
				<circle class="st247" cx="36.079" cy="97.281" r="9.308"/>
			</g>
			<g>
				<circle class="st188" cx="36.079" cy="94.115" r="9.308"/>
			</g>
			<g>
				<path class="st232" d="M29.498,100.697c-3.635-3.634-3.635-9.527,0-13.164c3.635-3.633,9.528-3.633,13.163,0"/>
			</g>
			<g>
				<path class="st205" d="M36.08,104.923c-2.887,0-5.601-1.124-7.642-3.166c-2.042-2.041-3.166-4.754-3.166-7.642
					c0-2.887,1.125-5.601,3.166-7.644c2.042-2.041,4.756-3.164,7.643-3.164s5.601,1.124,7.642,3.164
					c2.042,2.042,3.166,4.757,3.166,7.644c0,2.887-1.125,5.601-3.166,7.642C41.68,103.799,38.966,104.923,36.08,104.923z
					 M36.08,86.308c-2.086,0-4.046,0.812-5.521,2.286c-1.475,1.475-2.287,3.437-2.287,5.522s0.812,4.046,2.287,5.52
					c1.475,1.475,3.436,2.287,5.521,2.287s4.046-0.812,5.521-2.287c1.475-1.475,2.287-3.435,2.287-5.521s-0.812-4.047-2.288-5.522
					C40.126,87.12,38.165,86.308,36.08,86.308z"/>
			</g>
		</g>
	</g>
	<g>
		<g>
			<circle class="st141" cx="66.816" cy="40.797" r="30.737"/>
		</g>
		<g>
			<ellipse class="st226" cx="66.816" cy="40.797" rx="30.737" ry="23.542"/>
		</g>
		<g>
			<path class="st188" d="M36.08,40.797c0,16.978,13.761,30.737,30.737,30.737c16.975,0,30.736-13.76,30.736-30.737H36.08z"/>
		</g>
		<g>
			<path class="st232" d="M66.816,64.339c16.975,0,30.736-10.541,30.736-23.542H36.08C36.08,53.798,49.841,64.339,66.816,64.339z"/>
		</g>
		<g>
			<path class="st205" d="M66.816,73.035c-17.775,0-32.237-14.461-32.237-32.237S49.041,8.56,66.816,8.56
				s32.236,14.461,32.236,32.237S84.592,73.035,66.816,73.035z M66.816,11.56c-16.121,0-29.237,13.116-29.237,29.237
				s13.116,29.237,29.237,29.237s29.236-13.116,29.236-29.237S82.938,11.56,66.816,11.56z"/>
		</g>
		<g>
			<path class="st205" d="M97.553,42.297H36.08c-0.829,0-1.5-0.671-1.5-1.5s0.671-1.5,1.5-1.5h61.473c0.829,0,1.5,0.671,1.5,1.5
				S98.381,42.297,97.553,42.297z"/>
		</g>
		<g>
			<g>
				<circle class="st247" cx="66.816" cy="43.875" r="9.309"/>
			</g>
			<g>
				<circle class="st188" cx="66.816" cy="40.71" r="9.308"/>
			</g>
			<g>
				<path class="st232" d="M60.235,47.292c-3.635-3.635-3.635-9.528,0-13.163c3.635-3.635,9.528-3.635,13.163,0"/>
			</g>
			<g>
				<path class="st205" d="M66.816,51.518c-2.887,0-5.601-1.124-7.642-3.166c-2.042-2.041-3.166-4.755-3.166-7.642
					s1.125-5.601,3.166-7.642c2.041-2.042,4.755-3.166,7.642-3.166s5.601,1.124,7.642,3.166c2.042,2.041,3.166,4.755,3.166,7.642
					s-1.124,5.601-3.166,7.643C72.417,50.394,69.703,51.518,66.816,51.518z M66.816,32.902c-2.085,0-4.046,0.812-5.521,2.287
					s-2.287,3.436-2.287,5.521s0.812,4.046,2.287,5.521s3.436,2.287,5.521,2.287s4.046-0.812,5.521-2.287
					c1.475-1.475,2.287-3.436,2.287-5.521s-0.812-4.046-2.287-5.521C70.862,33.714,68.902,32.902,66.816,32.902z"/>
			</g>
		</g>
	</g>
	<g>
		<g>
			<circle class="st141" cx="98.921" cy="94.203" r="30.737"/>
		</g>
		<g>
			<ellipse class="st226" cx="98.921" cy="94.203" rx="30.737" ry="23.543"/>
		</g>
		<g>
			<path class="st188" d="M68.184,94.203c0,16.978,13.761,30.737,30.737,30.737c16.975,0,30.736-13.76,30.736-30.737H68.184z"/>
		</g>
		<g>
			<path class="st232" d="M98.921,117.746c16.975,0,30.736-10.541,30.736-23.543H68.184
				C68.184,107.205,81.945,117.746,98.921,117.746z"/>
		</g>
		<g>
			<path class="st205" d="M98.921,126.44c-17.775,0-32.237-14.461-32.237-32.237c0-17.775,14.461-32.236,32.237-32.236
				s32.236,14.461,32.236,32.236C131.157,111.979,116.696,126.44,98.921,126.44z M98.921,64.966
				c-16.121,0-29.237,13.115-29.237,29.236c0,16.122,13.116,29.237,29.237,29.237s29.236-13.116,29.236-29.237
				C128.157,78.082,115.042,64.966,98.921,64.966z"/>
		</g>
		<g>
			<path class="st205" d="M129.657,95.703H68.184c-0.829,0-1.5-0.671-1.5-1.5s0.671-1.5,1.5-1.5h61.473c0.829,0,1.5,0.671,1.5,1.5
				S130.486,95.703,129.657,95.703z"/>
		</g>
		<g>
			<g>
				<circle class="st247" cx="98.921" cy="97.281" r="9.308"/>
			</g>
			<g>
				<circle class="st188" cx="98.921" cy="94.115" r="9.308"/>
			</g>
			<g>
				<path class="st232" d="M92.339,100.697c-3.635-3.634-3.635-9.527,0-13.164c3.635-3.633,9.528-3.633,13.163,0"/>
			</g>
			<g>
				<path class="st205" d="M98.921,104.923c-2.887,0-5.601-1.124-7.642-3.166c-2.042-2.041-3.166-4.754-3.166-7.642
					c0-2.887,1.125-5.601,3.166-7.644c2.042-2.041,4.756-3.164,7.643-3.164s5.601,1.124,7.642,3.164
					c2.042,2.042,3.166,4.757,3.166,7.644c0,2.887-1.125,5.601-3.166,7.642C104.521,103.799,101.808,104.923,98.921,104.923z
					 M98.921,86.308c-2.086,0-4.046,0.812-5.521,2.286c-1.475,1.475-2.287,3.437-2.287,5.522s0.812,4.046,2.287,5.52
					c1.475,1.475,3.436,2.287,5.521,2.287s4.046-0.812,5.521-2.287c1.475-1.475,2.287-3.435,2.287-5.521s-0.812-4.047-2.288-5.522
					C102.967,87.12,101.006,86.308,98.921,86.308z"/>
			</g>
		</g>
	</g>
</g>
</svg>
